<svg xmlns="http://www.w3.org/2000/svg" viewBox="0 0 149.681 63">
  <defs>
    <style>
      .cls-1, .cls-2 {
        fill: #333e86;
      }

      .cls-1 {
        opacity: 0.9;
      }

      .cls-3 {
        fill: #b1262d;
      }
    </style>
  </defs>
  <g id="Symbol_10_4" data-name="Symbol 10 – 4" transform="translate(-30 -14)">
    <g id="Group_363" data-name="Group 363" transform="translate(132.093 14)">
      <path id="Path_182" data-name="Path 182" class="cls-1" d="M293.852,19.622A59.625,59.625,0,0,0,319.376,0V.9a9.558,9.558,0,0,1-2.218,6.089,59.373,59.373,0,0,1-23.305,16.84A51.538,51.538,0,0,0,271.9,40.446v-4.21A51.242,51.242,0,0,1,293.852,19.622Z" transform="translate(-271.787)"/>
      <path id="Path_183" data-name="Path 183" class="cls-2" d="M293.69,19.622A59.516,59.516,0,0,0,319.176,0V.9a9.558,9.558,0,0,1-2.218,6.089,59.373,59.373,0,0,1-23.305,16.84A51.538,51.538,0,0,0,271.7,40.446v-4.21A51.353,51.353,0,0,1,293.69,19.622Z" transform="translate(-271.662)"/>
      <path id="Path_184" data-name="Path 184" class="cls-2" d="M293.852,42.722A59.624,59.624,0,0,0,319.375,23.1v.977a9.19,9.19,0,0,1-2.143,5.9,59.427,59.427,0,0,1-23.381,16.915A51.538,51.538,0,0,0,271.9,63.509V59.336A51.242,51.242,0,0,1,293.852,42.722Z" transform="translate(-271.787 -14.417)"/>
      <path id="Path_185" data-name="Path 185" class="cls-2" d="M271.675,84.767V82.436a51.467,51.467,0,0,1,21.952-16.615A59.625,59.625,0,0,0,319.151,46.2v1.015a9.19,9.19,0,0,1-2.143,5.9,59.427,59.427,0,0,1-23.381,16.915,51.7,51.7,0,0,0-18.983,13.044,9.092,9.092,0,0,0-2.105,3.984c-.226,1.015-.413,2.03-.6,3.12-.075.489-.15,1.015-.226,1.654-.075-.226-.113-.263-.113-.3Z" transform="translate(-271.6 -28.834)"/>
    </g>
    <g id="Group_364" data-name="Group 364" transform="translate(30 14)">
      <path id="Path_186" data-name="Path 186" class="cls-1" d="M25.523,19.622A59.4,59.4,0,0,1,0,0V.9A9.382,9.382,0,0,0,2.218,6.954a59.373,59.373,0,0,0,23.305,16.84A51.538,51.538,0,0,1,47.476,40.409V36.236A51.466,51.466,0,0,0,25.523,19.622Z"/>
      <path id="Path_187" data-name="Path 187" class="cls-2" d="M25.623,19.622A59.625,59.625,0,0,1,.1,0V.9A9.382,9.382,0,0,0,2.318,6.954a59.373,59.373,0,0,0,23.305,16.84A51.538,51.538,0,0,1,47.576,40.409V36.236A51.466,51.466,0,0,0,25.623,19.622Z" transform="translate(-0.062)"/>
      <path id="Path_188" data-name="Path 188" class="cls-2" d="M25.523,42.722A59.4,59.4,0,0,1,0,23.1v.977a9.19,9.19,0,0,0,2.143,5.9A59.427,59.427,0,0,0,25.523,46.894,51.538,51.538,0,0,1,47.476,63.509V59.336A51.466,51.466,0,0,0,25.523,42.722Z" transform="translate(0 -14.417)"/>
      <path id="Path_189" data-name="Path 189" class="cls-2" d="M47.476,84.767V82.436A51.466,51.466,0,0,0,25.523,65.822,59.625,59.625,0,0,1,0,46.2v1.015a9.19,9.19,0,0,0,2.143,5.9A59.427,59.427,0,0,0,25.523,70.032,51.7,51.7,0,0,1,44.506,83.075a9.092,9.092,0,0,1,2.105,3.984c.226,1.015.413,2.03.6,3.12.075.489.15,1.015.226,1.654.075-.226.113-.263.113-.3Z" transform="translate(0 -28.834)"/>
    </g>
    <path id="Path_190" data-name="Path 190" class="cls-3" d="M159.594,117.525,135.8,101.7v4.436l23.794,15.675,23.757-15.675V101.7Z" transform="translate(-54.753 -49.471)"/>
  </g>
</svg>
