<svg id="Group_47" data-name="Group 47" xmlns="http://www.w3.org/2000/svg" viewBox="0 0 150.658 94.656">
  <defs>
    <style>
      .cls-1, .cls-2 {
        fill: #fff;
      }

      .cls-1 {
        opacity: 0.9;
      }
    </style>
  </defs>
  <g id="Group_43" data-name="Group 43" transform="translate(102.764)">
    <path id="Path_101" data-name="Path 101" class="cls-1" d="M403.915,19.745A59.9,59.9,0,0,0,429.613,0V.889A9.4,9.4,0,0,1,427.377,7a59.8,59.8,0,0,1-23.462,16.943A52.033,52.033,0,0,0,381.8,40.675V36.446A52.189,52.189,0,0,1,403.915,19.745Z" transform="translate(-381.719)"/>
    <path id="Path_102" data-name="Path 102" class="cls-2" d="M403.742,19.745A59.665,59.665,0,0,0,429.413,0V.889A9.4,9.4,0,0,1,427.177,7a59.8,59.8,0,0,1-23.462,16.943A52.033,52.033,0,0,0,381.6,40.675V36.446A52.435,52.435,0,0,1,403.742,19.745Z" transform="translate(-381.573)"/>
    <path id="Path_103" data-name="Path 103" class="cls-2" d="M403.915,52.245A59.87,59.87,0,0,0,429.586,32.5v1a9.114,9.114,0,0,1-2.155,5.926,59.64,59.64,0,0,1-23.516,17.024A52.032,52.032,0,0,0,381.8,73.175V68.946A51.974,51.974,0,0,1,403.915,52.245Z" transform="translate(-381.719 -23.746)"/>
    <path id="Path_104" data-name="Path 104" class="cls-2" d="M381.581,103.716v-2.344A52.033,52.033,0,0,1,403.7,84.645,59.871,59.871,0,0,0,429.367,64.9v1a9.114,9.114,0,0,1-2.155,5.926A59.639,59.639,0,0,1,403.7,88.847a52.188,52.188,0,0,0-19.1,13.145,8.935,8.935,0,0,0-2.128,4.014c-.242,1-.431,2.047-.593,3.152-.081.512-.162,1.024-.242,1.643a2.81,2.81,0,0,1-.135-.323Z" transform="translate(-381.5 -47.418)"/>
  </g>
  <g id="Group_44" data-name="Group 44">
    <path id="Path_105" data-name="Path 105" class="cls-1" d="M25.671,19.745A59.823,59.823,0,0,1,0,0V.889A9.4,9.4,0,0,0,2.236,7a59.51,59.51,0,0,0,23.435,16.97A52.033,52.033,0,0,1,47.786,40.7V36.472A52.033,52.033,0,0,0,25.671,19.745Z"/>
    <path id="Path_106" data-name="Path 106" class="cls-2" d="M25.8,19.745A59.9,59.9,0,0,1,.1,0V.889A9.4,9.4,0,0,0,2.336,7,59.6,59.6,0,0,0,25.8,23.974,52.033,52.033,0,0,1,47.913,40.7V36.472A52.033,52.033,0,0,0,25.8,19.745Z" transform="translate(-0.073)"/>
    <path id="Path_107" data-name="Path 107" class="cls-2" d="M25.671,52.245A60.03,60.03,0,0,1,0,32.5v1a9.114,9.114,0,0,0,2.155,5.926A59.639,59.639,0,0,0,25.671,56.447,52.033,52.033,0,0,1,47.786,73.175V68.946A51.974,51.974,0,0,0,25.671,52.245Z" transform="translate(0 -23.746)"/>
    <path id="Path_108" data-name="Path 108" class="cls-2" d="M47.786,103.716v-2.344A52.033,52.033,0,0,0,25.671,84.645,59.618,59.618,0,0,1,0,64.9v1a9.114,9.114,0,0,0,2.155,5.926A59.639,59.639,0,0,0,25.671,88.847a52.188,52.188,0,0,1,19.1,13.145,8.935,8.935,0,0,1,2.128,4.014c.242,1,.431,2.047.593,3.152.081.512.162,1.024.242,1.643a2.8,2.8,0,0,0,.135-.323Z" transform="translate(0 -47.418)"/>
  </g>
  <path id="Path_109" data-name="Path 109" class="cls-2" d="M214.72,158.82,190.8,142.9v4.445l23.92,15.812,23.947-15.812V142.9Z" transform="translate(-139.405 -104.407)"/>
  <g id="Group_45" data-name="Group 45" transform="translate(36.122 72.703)">
    <path id="Path_110" data-name="Path 110" class="cls-2" d="M143.663,281.682H134.1V278.4a2.868,2.868,0,0,1,.835-2.4c.646-.539,1.886-.781,3.744-.781h.269c.35.027.566.027.62.027a1.78,1.78,0,0,0,1.266-.35,1.491,1.491,0,0,0-.189-1.993,2.861,2.861,0,0,0-1.293-.215h-5.226V270.8h5.711a4.808,4.808,0,0,1,3.017.727,3.159,3.159,0,0,1,.862,2.505,3.266,3.266,0,0,1-.646,2.155,3.191,3.191,0,0,1-2.64,1h-2.074a1.961,1.961,0,0,0-1.374.35,2.4,2.4,0,0,0-.431,1.643v.673h7.084v1.832Z" transform="translate(-134.1 -270.558)"/>
    <path id="Path_111" data-name="Path 111" class="cls-2" d="M192.743,270.7v1.859h-3.771a2.334,2.334,0,0,0-1.939.808,5.216,5.216,0,0,0-.727,3.152,4.9,4.9,0,0,0,.35,2.128,1.692,1.692,0,0,0,.943.889,4.544,4.544,0,0,0,1.374.162h3.771v1.886h-3.852a5.057,5.057,0,0,1-3.852-1.374,5.431,5.431,0,0,1-1.239-3.852,6.429,6.429,0,0,1,1.077-4.067,4.882,4.882,0,0,1,4.067-1.589Z" transform="translate(-170.412 -270.484)"/>
    <path id="Path_112" data-name="Path 112" class="cls-2" d="M231.524,281.609H229.1l4.579-10.909H236.1l4.66,10.909h-2.532l-1-2.613h-4.741Zm1.67-4.525h3.259l-1.643-4.175Z" transform="translate(-203.51 -270.484)"/>
    <path id="Path_113" data-name="Path 113" class="cls-2" d="M288.79,281.609H286.5V270.7h5.63a4.5,4.5,0,0,1,2.882.754,3.088,3.088,0,0,1,.943,2.532,3.515,3.515,0,0,1-.539,1.966,2.527,2.527,0,0,1-1.643,1.077l2.694,4.579h-2.559l-2.424-4.256H288.79Zm2.828-8.943H288.79v2.775h2.8a3.218,3.218,0,0,0,1.616-.3,1.218,1.218,0,0,0,.431-1.1,1.288,1.288,0,0,0-.242-.916C293.126,272.8,292.534,272.666,291.618,272.666Z" transform="translate(-245.448 -270.484)"/>
    <path id="Path_114" data-name="Path 114" class="cls-2" d="M345.058,279.716v-2.559h-3.044v-1.913H347.4v6.465h-4.929a5.477,5.477,0,0,1-3.717-1.131,5.252,5.252,0,0,1-1.455-4.121,6.07,6.07,0,0,1,1.374-4.418,5.134,5.134,0,0,1,3.771-1.239h4.929v1.886h-4.929a2.224,2.224,0,0,0-1.832.727,6.083,6.083,0,0,0-.189,5.387,2.3,2.3,0,0,0,2.047.916Z" transform="translate(-282.564 -270.558)"/>
    <path id="Path_115" data-name="Path 115" class="cls-2" d="M395.841,269.9a7.3,7.3,0,0,1,2.721.431,3.982,3.982,0,0,1,1.993,1.7,7.061,7.061,0,0,1,.781,3.529,6.187,6.187,0,0,1-1.185,4.094,5.319,5.319,0,0,1-4.283,1.589,5.422,5.422,0,0,1-4.121-1.428,6.047,6.047,0,0,1-1.347-4.283,7.08,7.08,0,0,1,.727-3.421,3.975,3.975,0,0,1,1.939-1.751A8.414,8.414,0,0,1,395.841,269.9Zm-2.936,5.657a4.979,4.979,0,0,0,.62,2.694,2.578,2.578,0,0,0,2.343,1.131,2.61,2.61,0,0,0,2.29-1.051,4.709,4.709,0,0,0,.673-2.748,6.149,6.149,0,0,0-.189-1.7,2.76,2.76,0,0,0-.835-1.482,2.837,2.837,0,0,0-1.966-.646,2.638,2.638,0,0,0-2.236,1A5.011,5.011,0,0,0,392.905,275.557Z" transform="translate(-321.361 -269.9)"/>
  </g>
  <g id="Group_46" data-name="Group 46" transform="translate(51.234 88.676)">
    <path id="Path_116" data-name="Path 116" class="cls-2" d="M191.277,329.589l-.162-.189h1.859l.7,1.4.081.135c.027-.054.458-.566,1.212-1.455l.027-.081h1.859l-2.236,2.505.081.189,1.212,2.209h-1.859l-.754-1.535q-.121.162-1.131,1.293l-.108.242H190.2l2.182-2.451a2.938,2.938,0,0,0-.3-.7C191.9,330.774,191.628,330.262,191.277,329.589Z" transform="translate(-190.2 -329.346)"/>
    <path id="Path_117" data-name="Path 117" class="cls-2" d="M222.523,334.634l.97-4.606.027-.727h4.391a.5.5,0,0,1,.269.135,1.5,1.5,0,0,1,.189.458v.135l-.62,2.882-.081.189-.081.3a1.709,1.709,0,0,1-.189.323,1.159,1.159,0,0,1-.242.269l-.054.027a.7.7,0,0,1-.269.108,1.82,1.82,0,0,1-.377.054h-1.724c-.189-.054-.269-.215-.269-.485l-.323,1.562H222.2l.027-.081Zm3.448-1.67.512-2.451c.027-.135-.081-.242-.3-.3a1.08,1.08,0,0,0-.781.135l-.135.135-.539,2.505a.407.407,0,0,0,.108.242h.943A1.244,1.244,0,0,0,225.971,332.963Z" transform="translate(-213.58 -329.273)"/>
    <path id="Path_118" data-name="Path 118" class="cls-2" d="M255.531,329.8l-.081-.4h1.939l-.108.512a.911.911,0,0,1,.889-.512h.862c.458.054.646.485.512,1.239h-1.266l.027-.135a1.069,1.069,0,0,0-1.158.054l-.108.377-.62,2.936v.162l.081.269h-2.1a1.281,1.281,0,0,0,.3-.539Z" transform="translate(-237.107 -329.346)"/>
    <path id="Path_119" data-name="Path 119" class="cls-2" d="M285.211,329.777a1.6,1.6,0,0,1,.62-.377h3.636a.638.638,0,0,1,.35.35l.081.323-.027.162-.458,2.128-.189.027H286.5l-.162.027a1.265,1.265,0,0,0-.027.889,1.2,1.2,0,0,0,.485.054,6.714,6.714,0,0,0,2.424-.215.786.786,0,0,0-.054.242,2.053,2.053,0,0,1-.108.3l-.081.242-.054.162a.589.589,0,0,0-.081.242l-4.175-.027q-.485-.2-.4-.566l.027-.35.673-3.125A4.043,4.043,0,0,1,285.211,329.777Zm2.317.512c-.512,0-.754.108-.808.35l-.135.727h1.508l.162-.727C288.255,330.4,288.013,330.262,287.528,330.289Z" transform="translate(-258.921 -329.346)"/>
    <path id="Path_120" data-name="Path 120" class="cls-2" d="M316.381,329.846a1.665,1.665,0,0,1,.808-.646h3.5l.189.027a1.354,1.354,0,0,1,.269,1.616h-1.778a.567.567,0,0,0-.081-.7H318.4a.505.505,0,0,0-.189.162l-.081.162-.135.593.054.108a2.738,2.738,0,0,0,.593.054h1.077c.835,0,1.212.242,1.131.781l-.162.754-.108.377-.081.162-.135.323c-.054.054-.108.135-.162.189a1.5,1.5,0,0,1-.215.162l-.323.108H315.6l.162-1.535.323.242,2.64-.027a.435.435,0,0,0,.35-.323c.054-.162,0-.269-.189-.269l-2.451.027-.269-.081-.135-.027L315.95,332a1.026,1.026,0,0,1-.135-.162Z" transform="translate(-281.821 -329.2)"/>
    <path id="Path_121" data-name="Path 121" class="cls-2" d="M348.481,329.846a1.665,1.665,0,0,1,.808-.646h3.5l.189.027a1.354,1.354,0,0,1,.269,1.616h-1.778a.567.567,0,0,0-.081-.7H350.5a.505.505,0,0,0-.188.162l-.081.162-.135.593.054.108a2.738,2.738,0,0,0,.593.054h1.078c.835,0,1.212.242,1.131.781l-.162.754-.108.377-.081.162-.135.323c-.054.054-.108.135-.162.189a1.494,1.494,0,0,1-.216.162l-.323.108H347.7l.162-1.535.323.242,2.64-.027a.435.435,0,0,0,.35-.323c.054-.162,0-.269-.189-.269l-2.451.027-.269-.081-.135-.027L348.05,332a1.032,1.032,0,0,1-.135-.162Z" transform="translate(-305.275 -329.2)"/>
  </g>
</svg>
