<svg xmlns="http://www.w3.org/2000/svg" viewBox="0 0 19.154 19.131">
  <defs>
    <style>
      .cls-1 {
        fill: #cc2128;
      }
    </style>
  </defs>
  <path id="Path_289" data-name="Path 289" class="cls-1" d="M-.008,4.208A2.858,2.858,0,0,1,.961,1.939c.459-.416.884-.876,1.327-1.316C2.366.545,2.444.467,2.53.4A1.454,1.454,0,0,1,4.542.428L4.67.545C5.5,1.37,6.325,2.2,7.146,3.021a1.646,1.646,0,0,1,.525,1.016A1.553,1.553,0,0,1,7.15,5.305c-.487.494-.981.981-1.475,1.471-.237.234-.249.292-.117.6A9.732,9.732,0,0,0,7.1,9.742a15.451,15.451,0,0,0,3.048,2.872c.549.378,1.144.681,1.72,1.012a.337.337,0,0,0,.448-.105q.765-.776,1.537-1.545a1.52,1.52,0,0,1,1.292-.5,1.428,1.428,0,0,1,.845.4c.915.9,1.833,1.8,2.721,2.725a1.413,1.413,0,0,1,.023,2.02c-.167.2-.362.374-.545.557-.315.319-.646.619-.942.957a2.957,2.957,0,0,1-2.619.989,10.709,10.709,0,0,1-4.169-1.339A21.076,21.076,0,0,1,1,7.952a10.049,10.049,0,0,1-.938-2.97C.031,4.725.015,4.465-.008,4.208Z" transform="translate(0.008 -0.008)"/>
</svg>
