<svg id="Group_456" data-name="Group 456" xmlns="http://www.w3.org/2000/svg" viewBox="0 0 12.567 20.132">
  <defs>
    <style>
      .cls-1 {
        fill: #cc2128;
      }
    </style>
  </defs>
  <path id="Path_127" data-name="Path 127" class="cls-1" d="M6.264,20.131c-.046-.062-.079-.1-.1-.137a79.383,79.383,0,0,1-5.148-9.985A15.744,15.744,0,0,1,.071,7,5.5,5.5,0,0,1,1.407,2.335,5.959,5.959,0,0,1,7.866.244a6.06,6.06,0,0,1,4.6,5.04,6.2,6.2,0,0,1-.394,3.256,44.809,44.809,0,0,1-3.024,6.646C8.2,16.759,7.31,18.3,6.443,19.857,6.393,19.944,6.335,20.023,6.264,20.131ZM6.248,9.906a3.6,3.6,0,1,0-3.6-3.617A3.623,3.623,0,0,0,6.248,9.906Z" transform="translate(0.021 0)"/>
</svg>
